<svg width="3000" height="480" viewBox="0 0 3000 480" fill="none" xmlns="http://www.w3.org/2000/svg">
<path d="M302.393 99.3172C304.301 103.234 305.844 106.86 307.344 110.906L233.775 137.348C233.142 135.84 232.413 134.211 231.581 132.489C228.468 126.103 224.566 119.717 219.772 113.743C205.908 96.4456 187.578 85.9542 164.393 85.9542C135.061 85.9542 112.639 104.503 112.639 130.097C112.639 160.166 132.997 179.769 189.876 211.294C263.697 252.669 301.691 295.971 301.691 352.38C301.691 428.331 241.491 476.76 154.76 476.76C100.656 476.76 59.9566 456.266 30.5635 422.006C20.2456 409.98 12.0867 397.08 5.86996 384.18C3.70233 379.671 1.9249 375.497 0.528942 371.751C0.33819 371.254 0.16474 370.774 0 370.32L73.2485 343.114C74.211 345.291 75.3382 347.683 76.6388 350.237C80.7226 358.243 85.6561 366.249 91.474 373.74C108.321 395.469 129.069 408.651 153.893 408.651C188.02 408.651 211.335 387.78 211.335 357.634C211.335 325.294 191.046 306.617 126.243 270.386C59.0896 232.594 22.2746 187.877 22.2746 135.351C22.2746 67.4913 82.3959 18.6514 162.208 18.6514C214.552 18.6514 253.058 36.5484 280.084 66.4113C289.552 76.877 296.905 88.0972 302.393 99.3172ZM460.145 469.748H371.974V141.771H460.145V469.748ZM416.705 97.6114C387.529 97.6114 363.867 75.7629 363.867 48.8057C363.867 21.8486 387.529 0 416.705 0C445.89 0 469.543 21.8486 469.543 48.8057C469.543 75.7629 445.89 97.6114 416.705 97.6114ZM626.003 268.886V471.266H542.211V143.297H616.266L620.436 189.034L626.879 180.009C646.344 152.734 677.376 138.043 715.396 138.043C757.405 138.043 789.676 156.171 807.147 189.677L810.702 196.483L814.413 189.746C832.682 156.634 866.194 138.043 907.96 138.043C972.399 138.043 1011.12 179.28 1011.12 250.62V471.266H927.329V270.908C927.329 228.197 909.442 206.554 875.133 206.554C839.801 206.554 818.566 229.217 818.566 270.908V471.266H734.766V270.908C734.766 228.197 716.887 206.554 682.578 206.554C647.003 206.554 626.003 228 626.003 268.886ZM1160.74 467.554H1085.35L1085.33 22.3799H1173.51V174.463L1180.68 166.517C1199.34 145.834 1227.17 134.82 1261.59 134.82C1340.77 134.82 1383.57 177.026 1383.57 255.06V353.777C1383.57 431.426 1338.26 475.637 1259.4 475.637C1219.87 475.637 1189.73 463.174 1170.8 438.651L1164.47 430.44L1160.74 467.554ZM1173.51 268.003V343.174C1173.51 382.011 1197.19 406.32 1234.46 406.32C1271.71 406.32 1295.4 382.011 1295.4 343.174V268.003C1295.4 229.166 1271.71 204.866 1234.46 204.866C1197.19 204.866 1173.51 229.166 1173.51 268.003ZM1538.3 469.748H1450.12V141.771H1538.3V469.748ZM1498.91 97.6114C1469.73 97.6114 1446.07 75.7629 1446.07 48.8057C1446.07 21.8486 1469.73 0 1498.91 0C1528.08 0 1551.75 21.8486 1551.75 48.8057C1551.75 75.7629 1528.08 97.6114 1498.91 97.6114ZM1703.37 193.431C1723.11 158.726 1757.98 139.911 1805.13 138.146V220.294H1771.99C1727.28 220.294 1700.1 247.466 1700.1 296.777V470.863H1616.31V142.886H1691.64L1696.81 204.943L1703.37 193.431ZM2143.44 110.906L2069.87 137.348C2069.24 135.84 2068.51 134.211 2067.67 132.489C2064.56 126.103 2060.65 119.717 2055.87 113.743C2042 96.4456 2023.67 85.9542 2000.49 85.9542C1971.16 85.9542 1948.73 104.503 1948.73 130.097C1948.73 160.166 1969.08 179.769 2025.96 211.294C2099.79 252.669 2137.79 295.971 2137.79 352.38C2137.79 428.331 2077.59 476.76 1990.86 476.76C1936.74 476.76 1896.05 456.266 1866.66 422.006C1856.34 409.98 1848.18 397.08 1841.97 384.18C1839.8 379.671 1838.02 375.497 1836.62 371.751C1836.43 371.254 1836.26 370.774 1836.1 370.32L1909.34 343.114C1910.31 345.291 1911.43 347.683 1912.73 350.237C1916.82 358.243 1921.75 366.249 1927.57 373.74C1944.42 395.469 1965.16 408.651 1989.98 408.651C2024.12 408.651 2047.43 387.78 2047.43 357.634C2047.43 325.294 2027.13 306.617 1962.34 270.386C1895.18 232.594 1858.37 187.877 1858.37 135.351C1858.37 67.4913 1918.49 18.6514 1998.29 18.6514C2050.65 18.6514 2089.15 36.5484 2116.18 66.4113C2125.65 76.877 2133 88.0972 2138.48 99.3172C2140.4 103.234 2141.94 106.86 2143.44 110.906ZM2183.75 347.897V270.874C2183.75 189.908 2243.12 138.043 2332.08 138.043C2420.37 138.043 2477.61 187.988 2477.61 268.286V345.309C2477.61 426.052 2417.79 478.14 2329.27 478.14C2240.72 478.14 2183.75 428.606 2183.75 347.897ZM2267.55 270.386V345.789C2267.55 384.634 2292.09 408.814 2330.68 408.814C2369.27 408.814 2393.81 384.634 2393.81 345.789V270.386C2393.81 231.54 2369.27 207.369 2330.68 207.369C2292.09 207.369 2267.55 231.54 2267.55 270.386ZM2648.37 158.083H2722.77V215.28H2648.37V469.886H2564.58V215.28H2512.06V158.083H2564.58V114.746C2564.58 52.3285 2602.58 18.6514 2669.93 18.6514C2692.33 18.6514 2711.2 20.3742 2726.64 23.2285C2731.99 24.2228 2736.54 25.2771 2740.27 26.3314C2740.75 26.4599 2741.18 26.5885 2741.58 26.7085L2732.2 85.1744C2730.01 84.763 2727.56 84.36 2724.91 83.9829C2715.9 82.6886 2706.21 81.9172 2696.18 81.9172C2663.91 81.9172 2648.37 95.7601 2648.37 127.029V158.083ZM2828.68 67.1571H2912.48V160.106H3000V217.303H2912.48V370.569C2912.48 398.64 2926.43 410.674 2955.91 410.674C2965.02 410.674 2974.5 409.903 2983.82 408.608C2986.67 408.214 2989.34 407.794 2991.76 407.374L2999.65 472.954C2999.22 473.057 2998.74 473.168 2998.22 473.297C2994.3 474.214 2989.54 475.14 2983.95 476.006C2967.87 478.5 2948.33 480 2925.28 480C2863.4 480 2828.68 448.337 2828.68 389.966V217.303H2767.4V160.106H2828.68V67.1571Z" fill="#17181A"/>
</svg>
